<?xml version="1.0" encoding="UTF-8" standalone="no"?>
<svg
   version="1.1"
   x="0px"
   y="0px"
   viewBox="0 0 100 100"
   xml:space="preserve"
   id="svg12"
   sodipodi:docname="cat_smaller_centered.svg"
   width="100"
   height="100"
   inkscape:version="1.2.2 (732a01da63, 2022-12-09, custom)"
   inkscape:export-filename="cat_smaller_centered.png"
   inkscape:export-xdpi="96"
   inkscape:export-ydpi="96"
   xmlns:inkscape="http://www.inkscape.org/namespaces/inkscape"
   xmlns:sodipodi="http://sodipodi.sourceforge.net/DTD/sodipodi-0.dtd"
   xmlns="http://www.w3.org/2000/svg"
   xmlns:svg="http://www.w3.org/2000/svg"
   xmlns:rdf="http://www.w3.org/1999/02/22-rdf-syntax-ns#"
   xmlns:cc="http://creativecommons.org/ns#"
   xmlns:dc="http://purl.org/dc/elements/1.1/"><metadata
     id="metadata18"><rdf:RDF><cc:Work
         rdf:about=""><dc:format>image/svg+xml</dc:format><dc:type
           rdf:resource="http://purl.org/dc/dcmitype/StillImage" /><dc:title /></cc:Work></rdf:RDF></metadata><defs
     id="defs16" /><sodipodi:namedview
     pagecolor="#ffffff"
     bordercolor="#666666"
     borderopacity="1"
     objecttolerance="10"
     gridtolerance="10"
     guidetolerance="10"
     inkscape:pageopacity="0"
     inkscape:pageshadow="2"
     inkscape:window-width="3766"
     inkscape:window-height="2089"
     id="namedview14"
     showgrid="false"
     inkscape:zoom="15.104"
     inkscape:cx="37.407309"
     inkscape:cy="52.006091"
     inkscape:window-x="74"
     inkscape:window-y="34"
     inkscape:window-maximized="1"
     inkscape:current-layer="svg12"
     inkscape:showpageshadow="2"
     inkscape:pagecheckerboard="0"
     inkscape:deskcolor="#d1d1d1" /><style
     type="text/css"
     id="style2">
	.st0{fill-rule:evenodd;clip-rule:evenodd;}
</style><g
     id="g6"
     transform="matrix(0.52638473,0,0,0.52638473,23.670236,23.601806)"><path
       d="m 89.9,29.5 -2.2,-5 c 0,-3.4 -0.8,-6.3 -2.3,-8.6 -0.6,-1.9 0,-5.3 0.3,-6.5 0.1,-0.4 0,-0.8 -0.4,-1 C 85,8.2 84.5,8.1 84.2,8.4 82.9,9.2 82,10.2 81.4,11 81.7,9.4 82.4,7.6 82.9,6.7 83.2,6.3 83,5.8 82.7,5.5 c 0,0 -0.1,-0.1 -0.1,-0.1 0,0 0,0 0,0 0,0 -0.1,0 -0.1,0 -0.1,0 -0.2,-0.1 -0.3,-0.1 0,0 0,0 0,0 -0.1,0 -0.2,0 -0.3,0 C 69.4,7.5 60.9,19.2 62.6,31.6 42.3,38.6 31,62 34.3,90 23.2,88.7 14.6,79.2 14.6,67.8 14.6,59.3 19.2,52.1 27.4,47.6 38.7,41.4 38.1,34 37.9,31.2 c -0.3,-4 -2.1,-7.5 -5.1,-10 -3.1,-2.5 -7.2,-3.6 -11.2,-3.1 -1.3,0.2 -2.2,1.4 -2,2.7 0.1,0.6 0.4,1.2 0.9,1.6 0.5,0.4 1.1,0.5 1.7,0.5 2.7,-0.4 5.5,0.4 7.6,2.1 1.4,1.1 3.1,3.2 3.4,6.6 0.2,2.5 0.5,7.2 -8.1,11.9 C 15.4,48.8 9.9,57.7 9.9,67.9 9.9,82.5 21.3,94.4 36,95 h 32.9 c 1.1,0 1.8,-1 1.8,-2.4 0,-1.2 -0.5,-2.4 -1.3,-3.3 -0.7,-0.8 -2.1,-1.8 -4.4,-1.8 h -2.4 c 2.8,-1.4 5.3,-3.6 7,-6.3 l -0.2,3.5 6.6,10.2 h 7.3 c 1.1,0 1.8,-1 1.8,-2.4 0,-1.2 -0.5,-2.4 -1.3,-3.3 C 83.1,88.5 82,87.6 80,87.5 l -2.6,-4.7 c -0.2,-0.4 -0.3,-0.9 -0.3,-1.4 0,-2.3 0.2,-8.1 1,-13.9 0.4,-3 1.1,-6.1 1.6,-8.8 0.8,-3.8 1.5,-7 1.5,-9.4 0,-6 -1.9,-11.4 -3,-14.1 l 5.4,1.7 c 0.2,0.1 0.5,0.1 0.7,0.1 0.7,0 1.4,-0.3 1.8,-0.8 L 89.6,32 c 0.6,-0.8 0.7,-1.7 0.3,-2.5 z M 83.4,11.7 c -0.1,0.5 -0.1,1.1 -0.1,1.7 -0.2,-0.2 -0.4,-0.4 -0.7,-0.5 0.1,-0.3 0.4,-0.7 0.8,-1.2 z m 4.7,19 -3.5,4.2 C 84.5,35 84.3,35 84.2,35 L 75,32.1 c -0.5,-0.2 -1.1,0.1 -1.2,0.6 -0.2,0.5 0.1,1.1 0.6,1.2 l 1.2,0.4 c 0.6,1.1 3.5,7.6 3.5,14.9 0,2.2 -0.7,5.4 -1.4,9 -0.6,2.7 -1.2,5.8 -1.7,8.9 -0.8,5.9 -1,11.9 -1,14.1 0,0.8 0.2,1.6 0.6,2.3 l 3.2,5.7 h 0.6 c 2.1,0 3,1 3.4,1.8 0.4,0.8 0.4,1.5 0.3,1.8 h -6 L 71.4,84 71.9,76 c 0,-0.1 0,-0.1 0,-0.2 0.4,-1.5 0.6,-3 0.6,-4.6 0,-9.9 -8.1,-18 -18,-18 -0.5,0 -1,0.4 -1,1 0,0.6 0.4,1 1,1 8.9,0 16.1,7.2 16.1,16.1 0,8.9 -7.2,16.1 -16.1,16.1 -0.5,0 -1,0.4 -1,1 0,0.6 0.4,1 1,1 0.1,0 0.2,0 0.3,0 0,0 0,0 0,0 H 65 c 2.1,0 3,1 3.4,1.8 0.4,0.8 0.4,1.5 0.3,1.8 H 36 C 22.5,92.5 11.9,81.4 11.9,67.9 c 0,-9.4 5.2,-17.7 14.3,-22.7 9.7,-5.3 9.3,-11.2 9.1,-13.8 -0.3,-4.1 -2.4,-6.6 -4.1,-8 -2.5,-2 -5.8,-2.9 -9.1,-2.5 -0.1,0 -0.2,0 -0.3,-0.1 -0.1,0 -0.1,-0.1 -0.2,-0.3 0,-0.2 0.1,-0.4 0.3,-0.5 3.5,-0.5 7,0.5 9.7,2.7 2.6,2.1 4.1,5.1 4.4,8.6 0.2,2.5 0.7,9 -9.5,14.6 -8.9,4.9 -13.8,12.7 -13.8,22 0,12.7 9.9,23.4 22.6,24.3 0.6,0 1,-0.4 1,-0.9 0,0 0,-0.1 0,-0.1 0,-0.1 0,-0.2 0,-0.3 -3.6,-27.8 7.4,-50.9 27.4,-57.8 0,0 0.1,0 0.1,0 0.1,0 0.1,0 0.2,0 0.5,-0.1 0.9,-0.6 0.8,-1.1 -1.9,-11.1 5,-21.7 15.7,-24.6 -0.6,1.7 -1.2,3.8 -1.2,5.2 0,0 0,0 0,0 0,0 0,0 0,0 0,0.1 0,0.1 0,0.1 0,0.1 0,0.1 0,0.2 0,0.1 0.1,0.1 0.1,0.2 0,0.1 0.1,0.1 0.1,0.2 0.1,0.1 0.1,0.1 0.2,0.1 0,0 0.1,0.1 0.1,0.1 3.9,1.9 6,5.8 5.9,11.1 0,0 0,0 0,0 0,0.1 0,0.1 0,0.2 0,0.1 0,0.1 0,0.2 0,0 0,0 0,0 l 2.2,5.2 c 0.3,0.2 0.3,0.3 0.2,0.5 z"
       id="path4"
       inkscape:connector-curvature="0" /></g></svg>
