<?xml version="1.0" standalone="no"?>
<!DOCTYPE svg PUBLIC "-//W3C//DTD SVG 20010904//EN"
 "http://www.w3.org/TR/2001/REC-SVG-20010904/DTD/svg10.dtd">
<svg version="1.0" xmlns="http://www.w3.org/2000/svg"
 width="1225.000000pt" height="1280.000000pt" viewBox="0 0 1225.000000 1280.000000"
 preserveAspectRatio="xMidYMid meet">
<metadata>
Created by potrace 1.15, written by Peter Selinger 2001-2017
</metadata>
<g transform="translate(0.000000,1280.000000) scale(0.100000,-0.100000)"
fill="#000000" stroke="none">
<path d="M4565 12782 c-22 -11 -61 -41 -86 -69 -137 -147 -198 -415 -315
-1388 -31 -259 -60 -473 -63 -477 -4 -5 -117 40 -251 98 -1045 451 -1253 534
-1729 690 -139 46 -351 94 -415 94 -48 0 -108 -25 -125 -52 -21 -33 -16 -143
9 -234 91 -325 442 -1098 703 -1549 118 -203 317 -482 317 -444 0 6 -42 81
-94 167 -283 474 -422 795 -510 1183 -70 310 -84 516 -39 577 27 37 86 41 167
11 167 -60 828 -374 1191 -566 371 -196 705 -402 705 -435 0 -9 -15 -77 -34
-150 -79 -307 -184 -470 -431 -673 -136 -111 -216 -168 -681 -482 -752 -508
-1010 -703 -1293 -978 -273 -266 -469 -544 -585 -832 -123 -308 -158 -523
-176 -1093 -11 -336 -26 -495 -65 -676 -88 -405 -283 -889 -501 -1239 -178
-286 -198 -322 -227 -395 -62 -157 -45 -298 63 -516 104 -213 280 -455 464
-640 172 -172 293 -250 554 -358 151 -62 203 -96 377 -246 285 -245 507 -355
835 -417 137 -26 608 -26 800 0 345 47 700 128 990 228 96 33 182 62 191 65
34 12 478 -613 987 -1387 338 -514 405 -610 418 -597 11 11 -38 128 -142 338
-290 587 -660 1181 -1027 1647 l-57 72 152 78 c194 100 311 173 467 290 68 51
126 93 131 93 11 0 334 -239 520 -385 504 -396 732 -599 1959 -1743 377 -352
483 -432 389 -294 -134 197 -581 695 -994 1107 -540 540 -975 904 -1576 1321
-82 56 -154 104 -160 107 -8 2 25 43 78 99 92 95 152 173 141 184 -11 11 -48
-8 -197 -106 l-152 -99 -116 71 c-368 222 -935 517 -1047 544 l-30 7 20 -22
c29 -33 112 -90 400 -276 335 -215 625 -408 625 -416 0 -11 -351 -205 -547
-303 -106 -53 -194 -96 -196 -96 -2 0 -70 72 -152 161 -203 221 -487 479 -526
479 -33 0 4 -53 301 -429 118 -150 214 -276 213 -279 -3 -10 -289 -120 -448
-171 -481 -156 -905 -181 -1330 -77 -531 130 -1318 542 -1635 856 -114 113
-145 192 -120 310 15 72 95 240 212 445 233 410 279 535 232 626 -35 69 -120
81 -362 53 -166 -19 -249 -16 -269 12 -39 51 7 158 210 486 255 414 368 632
435 838 48 150 57 203 57 370 0 170 -8 224 -66 470 -51 218 -69 327 -69 414 0
310 175 637 600 1127 132 151 453 469 613 605 533 456 1162 799 1708 933 182
44 336 69 634 101 438 47 605 76 785 138 206 71 294 119 397 215 84 78 136
158 170 261 24 74 27 95 27 241 1 188 -18 297 -91 515 -81 244 -193 458 -425
807 -157 238 -183 281 -173 291 25 25 337 -192 1548 -1081 1745 -1279 2322
-1739 2916 -2322 430 -423 733 -774 1158 -1345 173 -233 285 -389 758 -1060
323 -459 521 -721 566 -748 21 -14 22 -13 15 20 -9 49 -158 345 -284 563 -809
1408 -1981 2818 -3237 3894 -603 517 -1053 851 -2645 1963 -272 191 -612 430
-755 532 -393 281 -528 355 -655 363 -49 3 -75 -1 -105 -15z"/>
<path d="M2625 6810 c-147 -13 -364 -48 -470 -75 -151 -38 -214 -81 -200 -137
4 -14 37 -63 74 -109 86 -108 140 -186 232 -333 90 -147 162 -226 236 -262
158 -77 424 -13 694 168 162 108 254 213 353 405 67 127 110 165 248 217 l59
22 -38 12 c-54 16 -315 59 -468 77 -156 19 -580 27 -720 15z"/>
<path d="M4125 3745 c27 -23 140 -75 320 -147 442 -176 832 -371 1217 -604
299 -182 513 -328 1188 -809 431 -307 499 -354 548 -379 62 -32 34 8 -95 136
-158 155 -224 214 -431 386 -671 559 -1214 903 -1827 1157 -300 125 -733 258
-879 271 -58 5 -60 5 -41 -11z"/>
</g>
</svg>
