<?xml version="1.0" encoding="UTF-8" standalone="no"?>
<svg
   version="1.1"
   x="0px"
   y="0px"
   viewBox="0 0 64 64"
   xml:space="preserve"
   id="svg24"
   sodipodi:docname="noun-cat-house-4094210.svg"
   width="64"
   height="64"
   inkscape:version="1.2.2 (732a01da63, 2022-12-09, custom)"
   xmlns:inkscape="http://www.inkscape.org/namespaces/inkscape"
   xmlns:sodipodi="http://sodipodi.sourceforge.net/DTD/sodipodi-0.dtd"
   xmlns="http://www.w3.org/2000/svg"
   xmlns:svg="http://www.w3.org/2000/svg"><defs
     id="defs28" /><sodipodi:namedview
     id="namedview26"
     pagecolor="#ffffff"
     bordercolor="#666666"
     borderopacity="1.0"
     inkscape:showpageshadow="2"
     inkscape:pageopacity="0.0"
     inkscape:pagecheckerboard="0"
     inkscape:deskcolor="#d1d1d1"
     showgrid="false"
     inkscape:zoom="12.8375"
     inkscape:cx="32.054528"
     inkscape:cy="40"
     inkscape:window-width="3770"
     inkscape:window-height="2089"
     inkscape:window-x="70"
     inkscape:window-y="34"
     inkscape:window-maximized="1"
     inkscape:current-layer="svg24" /><path
     d="M 62.321264,26.919719 56.624817,11.729192 C 56.485255,11.358924 56.131125,11.113028 55.735222,11.113028 H 25.354169 V 7.3153947 c 0.525023,0 0.949408,-0.4253346 0.949408,-0.9494079 V 2.5683553 c 0,-0.5240732 -0.424385,-0.949408 -0.949408,-0.949408 H 13.961275 c -0.525023,0 -0.949408,0.4253348 -0.949408,0.949408 v 3.7976315 c 0,0.5240733 0.424385,0.9494079 0.949408,0.9494079 V 11.113028 H 8.2648261 c -0.395903,0 -0.7500322,0.245896 -0.8895951,0.616164 L 1.6787836,26.919719 c -0.1091819,0.291468 -0.068357,0.618064 0.1082326,0.874404 0.1784886,0.256341 0.4699568,0.408246 0.7813625,0.408246 H 5.4166025 V 54.78579 H 4.4671946 c -0.5250226,0 -0.9494079,0.424385 -0.9494079,0.949409 v 5.696447 c 0,0.525023 0.4243853,0.949407 0.9494079,0.949407 H 59.532853 c 0.525023,0 0.949409,-0.424384 0.949409,-0.949407 v -5.696447 c 0,-0.525024 -0.424386,-0.949409 -0.949409,-0.949409 H 58.583446 V 28.202369 h 2.848224 c 0.311405,0 0.602873,-0.152854 0.780413,-0.408246 0.177539,-0.25634 0.218364,-0.582936 0.109181,-0.874404 z M 14.910683,3.5177632 h 9.494079 V 5.416579 h -9.494079 z m 8.544671,3.7976315 V 16.809474 H 15.86009 V 7.3153947 Z M 58.583446,60.482238 H 5.4166025 V 56.684606 H 58.583446 Z M 25.354169,44.342304 v -9.101025 l 2.176993,2.176993 c 0.178488,0.178488 0.419638,0.278175 0.671232,0.278175 h 7.595263 c 0.252542,0 0.492742,-0.09969 0.67123,-0.278175 l 2.176992,-2.176993 v 9.101025 c 0,1.57032 -1.277902,2.848223 -2.848222,2.848223 h -7.595263 c -1.570322,0 -2.848225,-1.276954 -2.848225,-2.848223 z m 10.443488,4.747038 c 2.617517,0 4.747039,2.129523 4.747039,4.74704 V 54.78579 H 23.455354 v -0.949408 c 0,-2.617517 2.129522,-4.74704 4.74704,-4.74704 z M 56.68463,54.78579 H 42.443511 v -0.949408 c 0,-2.561502 -1.459239,-4.785015 -3.587812,-5.893925 1.024411,-0.871555 1.688997,-2.153256 1.688997,-3.600153 V 32.949408 c 0,-0.38356 -0.230706,-0.730094 -0.585785,-0.877252 -0.355078,-0.146209 -0.762375,-0.06646 -1.034854,0.206022 l -3.519456,3.519454 h -6.809154 l -3.519454,-3.519454 c -0.271531,-0.271532 -0.678827,-0.351282 -1.034855,-0.206022 -0.355077,0.147158 -0.585784,0.493692 -0.585784,0.877252 v 11.392896 c 0,1.446897 0.664585,2.728598 1.688996,3.600153 -2.128571,1.10891 -3.587813,3.333373 -3.587813,5.893925 V 54.78579 H 7.3154182 V 28.202369 H 56.68463 Z M 3.9393238,26.303553 8.9237156,13.011843 h 5.0375594 v 4.74704 c 0,0.524072 0.424385,0.949407 0.949408,0.949407 h 9.494079 c 0.525023,0 0.949407,-0.425335 0.949407,-0.949407 v -4.74704 h 29.723114 l 4.98439,13.29171 z"
     id="path18"
     style="stroke-width:0.949407" /></svg>
