<?xml version="1.0" encoding="UTF-8" standalone="no"?>
<svg
   version="1.1"
   x="0px"
   y="0px"
   viewBox="0 0 100 100"
   xml:space="preserve"
   id="svg26"
   sodipodi:docname="noun-cat-1383351.svg"
   width="100"
   height="100"
   inkscape:version="1.2.2 (732a01da63, 2022-12-09, custom)"
   xmlns:inkscape="http://www.inkscape.org/namespaces/inkscape"
   xmlns:sodipodi="http://sodipodi.sourceforge.net/DTD/sodipodi-0.dtd"
   xmlns="http://www.w3.org/2000/svg"
   xmlns:svg="http://www.w3.org/2000/svg"><defs
     id="defs30" /><sodipodi:namedview
     id="namedview28"
     pagecolor="#ffffff"
     bordercolor="#666666"
     borderopacity="1.0"
     inkscape:showpageshadow="2"
     inkscape:pageopacity="0.0"
     inkscape:pagecheckerboard="0"
     inkscape:deskcolor="#d1d1d1"
     showgrid="false"
     inkscape:zoom="11.619179"
     inkscape:cx="51.079342"
     inkscape:cy="57.878446"
     inkscape:window-width="3770"
     inkscape:window-height="2089"
     inkscape:window-x="70"
     inkscape:window-y="34"
     inkscape:window-maximized="1"
     inkscape:current-layer="svg26" /><g
     id="g20"
     transform="matrix(1.4911807,0,0,1.4911807,-23.200386,-25.379184)"><path
       d="m 66.6,54.5 c 2.3,-2.1 3.7,-5.1 3.7,-8.3 v -5.4 c 0,-2.3 -0.7,-4.6 -2.1,-6.5 -0.2,-0.2 -0.4,-0.4 -0.7,-0.4 -0.3,0 -0.5,0 -0.8,0.2 -2.1,1.5 -3.1,3.6 -3.6,4.9 -2.7,-0.7 -5.6,-0.7 -8.3,0 -0.6,-1.8 -2.1,-3.5 -3.5,-4.6 -0.2,-0.2 -0.5,-0.3 -0.8,-0.2 -0.3,0 -0.5,0.2 -0.7,0.4 -1.3,1.9 -1.9,4 -1.9,6.3 v 0.5 C 45.8,40.4 41.4,39 34.8,40.3 v -1.1 c 0,-5.9 0.8,-11.7 10.2,-11.7 10.1,0 10.3,7 10.3,7.2 0,2 1.3,3.2 3.4,3.2 1,0 1.8,-0.3 2.3,-0.9 0.7,-0.8 0.9,-2 0.7,-3.9 -0.4,-3.8 -3,-12.7 -17,-12.7 -15.5,0 -16.3,13 -16.8,22.4 0,0.4 -1.4,35.5 4.3,36.3 0,0 0.1,0 0.1,0 H 35 c 0.3,0 0.6,-0.1 0.8,-0.4 0.2,-0.2 0.3,-0.6 0.2,-0.9 0,-0.1 -3.1,-11.9 -1.8,-18.2 0.5,-2.3 1.2,-3 1.5,-3 0.5,0.1 1.8,1.9 1.6,5.9 -0.3,6.4 1.1,13.8 3,15.8 0.5,0.6 1.1,0.7 1.4,0.7 h 2.6 c 0.3,0 0.6,-0.1 0.8,-0.4 0.2,-0.2 0.2,-0.6 0.2,-0.9 C 45.3,77.6 42,65.8 43,59 c 0.3,-1.7 1.1,-2.5 2.6,-2.6 0,0 0,0 0.1,0 2.8,0 7.1,3.1 7.7,6.4 0.3,1.8 0.4,4.1 0.5,6.3 0.2,5.1 0.4,9.8 3.6,9.8 h 2.8 c 0.6,0 1,-0.4 1,-1 0,-0.3 -0.1,-0.5 -0.3,-0.7 -0.5,-1 -2.5,-6 -1,-14.9 0.1,-0.6 0.6,-1.1 1.2,-1.1 1.1,0.1 1.5,2.1 1.6,3.3 L 63,66 c 0.9,8.9 1.7,14.7 4.8,14.7 h 1.6 c 0.5,0 1,-0.4 1,-1 0,-0.7 0.7,-16.4 -4.7,-24.7 0.2,0.1 0.6,-0.2 0.9,-0.5 z M 49.9,40.8 c 0,-1.5 0.3,-2.9 1,-4.1 1.3,1.3 2.1,2.5 2.1,3.6 0,0.3 0.2,0.6 0.4,0.8 0.2,0.2 0.6,0.2 0.9,0.2 l 0.3,-0.1 c 2.9,-0.8 6,-0.8 8.9,0.1 0.3,0.1 0.5,0 0.8,-0.1 0.2,-0.1 0.4,-0.4 0.5,-0.6 0,0 0.6,-2.2 2.4,-4 0.7,1.3 1.1,2.8 1.1,4.4 v 5.4 c 0,2.6 -1.1,5 -3,6.8 -1.9,1.8 -4.4,2.6 -7.1,2.3 C 53.6,55 49.9,50.9 49.9,46.1 Z M 68.3,79 h -0.6 c -1.5,0 -2.4,-9.3 -2.8,-12.9 l -0.2,-1.5 c -0.4,-4 -2.1,-5 -3.5,-5.1 -1.6,-0.1 -3.1,1.1 -3.3,2.8 -1.2,7.7 -0.1,12.6 0.7,14.9 h -1.2 c -1.3,0 -1.5,-4.8 -1.6,-7.9 -0.1,-2.3 -0.2,-4.7 -0.6,-6.6 -0.8,-4 -5.6,-8 -9.7,-8 0,0 -0.1,0 -0.1,0 -2.4,0 -4.1,1.6 -4.5,4.3 -0.9,5.9 1.2,14.9 2,18.3 H 41.7 C 40.6,76.6 38.8,69.8 39.1,62.9 39.3,58.5 37.9,55.2 35.7,54.9 35,54.8 33,55 32.1,59.4 31,65 32.9,73.9 33.6,77.2 H 32.4 C 30.5,75.9 28.9,58.1 29.8,43 30.5,31.4 32,22.4 44.6,22.4 c 11.9,0 14.5,6.9 15,11 0.2,1.7 0,2.2 -0.2,2.3 -0.1,0.1 -0.4,0.2 -0.8,0.2 -1,0 -1.4,-0.4 -1.4,-1.2 0,-0.1 -0.1,-9.2 -12.3,-9.2 -12.2,0 -12.2,9.2 -12.2,13.7 v 2.3 c 0,0.3 0.1,0.6 0.4,0.8 0.2,0.2 0.6,0.3 0.8,0.2 8.1,-1.9 12.7,0.4 13.9,1.1 V 46 c 0,5.9 4.4,10.9 10.1,11.4 0.4,0 0.7,0.1 1.1,0.1 1.6,0 3.3,-0.4 4.7,-1.1 4.4,6.6 4.6,19.1 4.6,22.6 z"
       id="path18" /></g></svg>
